<svg width="120" height="120" viewBox="0 0 50 50" fill="none" xmlns="http://www.w3.org/2000/svg">
    <path d="M46.4156 27.7501C46.9297 28.2564 46.9078 28.5314 46.4047 29.0173C44.6859 30.6829 42.9984 32.3939 41.3063 34.0939C41.0172 34.3845 40.8078 34.6079 40.3969 34.1939C35.3083 29.0637 30.2104 23.9439 25.1031 18.8345C21.9896 15.747 18.8745 12.661 15.7578 9.57667C15.4578 9.28136 15.4922 9.08136 15.775 8.79542C17.5906 6.9975 19.3974 5.18969 21.1953 3.37198C21.5297 3.03292 21.7344 3.09229 22.0375 3.39854C24.2531 5.64438 26.4771 7.88396 28.7094 10.1173C29.3141 10.7017 29.9156 11.2907 30.525 11.8689C30.7688 12.1001 30.9578 12.4189 31.3516 12.4329C34.3672 9.42459 37.3807 6.41365 40.3922 3.40011C40.7281 3.06261 40.9406 3.01573 41.3031 3.38292C43.0328 5.13292 44.775 6.87198 46.5484 8.57823C47.0094 9.02042 46.9625 9.25948 46.5344 9.68136C43.7031 12.4735 40.9172 15.3064 38.0703 18.0876C37.4844 18.6579 37.5516 18.9376 38.0953 19.4704C40.8875 22.2095 43.625 25.0079 46.4156 27.7501ZM24.8922 31.1767C24.8624 31.1213 24.8274 31.069 24.7875 31.0204C19.7448 25.9767 14.7037 20.9303 9.66407 15.8814C9.27969 15.497 9.05625 15.5048 8.68125 15.8814C6.98125 17.6173 5.27032 19.3439 3.525 21.0376C3.02813 21.5157 3.09375 21.7736 3.54844 22.222C6.33438 24.972 9.07344 27.7673 11.8688 30.5032C12.4344 31.0595 12.4156 31.3611 11.8578 31.9095C9.04532 34.6751 6.28282 37.4923 3.48438 40.2736C3.075 40.6798 2.96563 40.9236 3.44688 41.3907C5.19063 43.0829 6.89688 44.8126 8.58594 46.5611C8.99219 46.9829 9.21094 46.9767 9.62188 46.5611C11.5406 44.5996 13.4802 42.6574 15.4406 40.7345C16.5114 39.5804 17.6438 38.4851 18.8328 37.4532L21.2859 39.897C23.5078 42.1262 25.7276 44.3579 27.9453 46.5923C28.2578 46.9048 28.4875 46.9157 28.8047 46.5923C30.6005 44.7808 32.4047 42.9782 34.2172 41.1845C34.5063 40.8986 34.5094 40.6986 34.2172 40.4032C31.1026 37.3376 27.9943 34.2621 24.8922 31.1767Z" fill="url(#paint0_linear_31_300)"/>
    <defs>
        <linearGradient id="paint0_linear_31_300" x1="6.00469" y1="43.9845" x2="43.9813" y2="6.00793" gradientUnits="userSpaceOnUse">
            <stop stop-color="#7ECEFD"/>
            <stop offset="1" stop-color="#56B1FC"/>
        </linearGradient>
    </defs>
</svg>
