<svg width="444" height="512" viewBox="0 0 444 512" fill="none" xmlns="http://www.w3.org/2000/svg">
    <path d="M430.601 257.779C359.023 259.184 373.932 304.496 323.487 315.955C272.242 327.597 264.153 190.8 212.921 190.8C161.682 190.8 150.332 323.683 86.1751 414.909L84.3447 417.491L221.897 496.893L430.601 376.41V257.779Z" fill="#36A2EB"/>
    <path d="M430.601 253.655C406.639 222.903 390.386 187.549 355.42 187.549C293.542 187.549 309.823 288.493 241.436 288.493C173.042 288.493 165.852 179.914 88.3736 281.981C63.6856 314.503 43.8136 350.765 28.204 385.079L221.897 496.896L430.601 376.413V253.655Z" fill="#FFCE56"/>
    <path opacity="0.8" d="M13.1885 295.469C36.6701 230.442 46.8045 177.776 91.6333 177.776C160.02 177.776 176.299 369.901 234.926 350.355C293.544 330.819 287.028 226.615 378.219 226.615C395.576 226.615 413.297 237.248 430.606 254.448V376.41L221.902 496.893L13.1885 376.41V295.469Z" fill="#FE6184"/>
    <path d="M221.734 512L0 384.003V128L221.734 0L443.469 128V384L221.734 512ZM26.0512 368.963L221.734 481.926L417.418 368.963V143.04L221.734 30.0768L26.0512 143.04V368.963Z" fill="#E7E9ED"/>
</svg>
