<svg width="120" height="120" viewBox="0 0 120 120" fill="none" xmlns="http://www.w3.org/2000/svg">
    <path d="M60.0711 0.000555749C69.8104 0.000555749 78.981 2.276 87.5829 6.68358L88.7204 7.2523L87.7251 8.03429C85.3081 9.95372 83.3886 12.4419 82.1801 15.2855L81.8246 16.0675L81.1137 15.712C74.5024 12.5841 67.4645 10.949 60.1422 10.949C33.0569 10.949 11.09 32.9869 11.09 60.0011C11.09 87.0153 32.9858 109.053 60.0711 109.053C87.1564 109.053 109.123 87.0153 109.123 60.0011C109.123 53.5319 107.915 47.2049 105.355 41.2333L105 40.4514L105.782 40.0959C108.697 39.0296 111.256 37.2523 113.318 34.9774L114.1 33.9822L114.597 35.1196C118.223 43.0106 120 51.3992 120 59.8589C120 92.9158 93.0569 119.859 60 119.859C26.9431 119.859 0 92.9158 0 59.8589C0 26.8021 26.9431 -0.141064 60.0711 0.000555749ZM60.0711 32.7025C75.0711 32.7025 87.3697 44.93 87.4408 60.0722C87.4408 75.2144 75.2133 87.4419 60.0711 87.4419C44.9289 87.4419 32.7014 75.2144 32.7014 60.0722C32.7014 44.93 45 32.7025 60.0711 32.7025ZM99.2417 10.0959C106.152 10.0959 111.754 15.6976 111.754 22.6078C111.754 29.5179 106.152 35.1196 99.2417 35.1196C92.3316 35.1196 86.7299 29.5179 86.7299 22.6078C86.7299 15.6976 92.3316 10.0959 99.2417 10.0959Z" fill="#3880FF"/>
</svg>
