<svg width="120" height="120" viewBox="0 0 120 120" fill="none" xmlns="http://www.w3.org/2000/svg">
    <g clip-path="url(#clip0_31_170)">
        <path fill-rule="evenodd" clip-rule="evenodd" d="M59.3489 96.6841C58.9421 96.6841 58.5623 96.5756 58.2097 96.3858L54.6021 94.2429C54.0596 93.9445 54.3309 93.836 54.4936 93.7818C55.226 93.5377 55.3616 93.4834 56.1211 93.0494C56.2025 92.9952 56.311 93.0223 56.3923 93.0765L59.1591 94.7312C59.2676 94.7854 59.4032 94.7854 59.4846 94.7312L70.3074 88.4653C70.4159 88.4111 70.4701 88.3026 70.4701 88.167V75.6624C70.4701 75.5268 70.4159 75.4183 70.3074 75.3641L59.4846 69.1254C59.3761 69.0711 59.2404 69.0711 59.1591 69.1254L48.3363 75.3641C48.2278 75.4183 48.1735 75.5539 48.1735 75.6624V88.167C48.1735 88.2755 48.2278 88.4111 48.3363 88.4653L51.2929 90.1742C52.8933 90.9879 53.8969 90.0386 53.8969 89.0892V76.7474C53.8969 76.5847 54.0325 76.4219 54.2224 76.4219H55.6057C55.7685 76.4219 55.9312 76.5575 55.9312 76.7474V89.0892C55.9312 91.2321 54.7649 92.4798 52.7305 92.4798C52.1066 92.4798 51.6184 92.4798 50.235 91.8017L47.3869 90.1742C46.6817 89.7673 46.2477 89.0078 46.2477 88.1941V75.6896C46.2477 74.8758 46.6817 74.1163 47.3869 73.7094L58.2097 67.4436C58.8878 67.0639 59.8101 67.0639 60.4882 67.4436L71.311 73.7094C72.0162 74.1163 72.4502 74.8758 72.4502 75.6896V88.1941C72.4502 89.0078 72.0162 89.7673 71.311 90.1742L60.4882 96.44C60.1356 96.6028 59.7287 96.6841 59.3489 96.6841ZM62.6853 88.0856C57.9385 88.0856 56.962 85.9156 56.962 84.0711C56.962 83.9084 57.0976 83.7456 57.2875 83.7456H58.698C58.8607 83.7456 58.9963 83.8541 58.9963 84.0169C59.2133 85.4545 59.8372 86.1597 62.7124 86.1597C64.9909 86.1597 65.9674 85.6443 65.9674 84.4237C65.9674 83.7185 65.6961 83.2031 62.1428 82.8505C59.1862 82.5521 57.3417 81.9011 57.3417 79.5413C57.3417 77.3442 59.1862 76.0422 62.2784 76.0422C65.7504 76.0422 67.4593 77.2357 67.6763 79.8396C67.6763 79.921 67.6491 80.0024 67.5949 80.0838C67.5406 80.138 67.4593 80.1923 67.3779 80.1923H65.9674C65.8318 80.1923 65.6961 80.0838 65.669 79.9481C65.3435 78.4563 64.5027 77.968 62.2784 77.968C59.7829 77.968 59.4846 78.836 59.4846 79.487C59.4846 80.2736 59.8372 80.5178 63.2007 80.9518C66.537 81.3858 68.1103 82.0096 68.1103 84.3424C68.0831 86.7293 66.1301 88.0856 62.6853 88.0856Z" fill="#539E43"/>
        <path fill-rule="evenodd" clip-rule="evenodd" d="M25.7685 47.7782C25.7685 47.2899 25.4973 46.8288 25.0633 46.5847L13.5624 39.9662C13.3725 39.8577 13.1555 39.8035 12.9385 39.7764H12.83C12.613 39.7764 12.396 39.8577 12.2062 39.9662L0.705244 46.5847C0.271248 46.8288 0 47.2899 0 47.7782L0.0271248 65.572C0.0271248 65.8162 0.162749 66.0603 0.379747 66.1688C0.596745 66.3044 0.867993 66.3044 1.05787 66.1688L7.89331 62.2628C8.32731 62.0187 8.59856 61.5576 8.59856 61.0693V52.742C8.59856 52.2538 8.8698 51.7926 9.3038 51.5485L12.2062 49.8668C12.4231 49.7312 12.6673 49.6769 12.9114 49.6769C13.1555 49.6769 13.3996 49.7312 13.5895 49.8668L16.4919 51.5485C16.9259 51.7926 17.1971 52.2538 17.1971 52.742V61.0693C17.1971 61.5576 17.4684 62.0187 17.9024 62.2628L24.7378 66.1688C24.9548 66.3044 25.226 66.3044 25.443 66.1688C25.66 66.0603 25.7957 65.8162 25.7957 65.572L25.7685 47.7782V47.7782V47.7782Z" fill="#333333"/>
        <path fill-rule="evenodd" clip-rule="evenodd" d="M81.0487 23.2845C80.8317 23.176 80.5604 23.176 80.3706 23.2845C80.1536 23.4201 80.0179 23.6371 80.0179 23.8812V41.5124C80.0179 41.6751 79.9366 41.8378 79.7738 41.9463C79.6111 42.0277 79.4483 42.0277 79.2856 41.9463L76.4103 40.2917C75.9764 40.0476 75.461 40.0476 75.027 40.2917L63.5261 46.9373C63.0921 47.1814 62.8208 47.6426 62.8208 48.1308V61.3948C62.8208 61.8831 63.0921 62.3442 63.5261 62.5883L75.027 69.2339C75.461 69.478 75.9764 69.478 76.4103 69.2339L87.9113 62.5883C88.3453 62.3442 88.6165 61.8831 88.6165 61.3948V28.3297C88.6165 27.8143 88.3453 27.3532 87.9113 27.1091L81.0487 23.2845V23.2845V23.2845ZM79.9907 57.0277C79.9907 57.1633 79.9365 57.2718 79.828 57.3261L75.8949 59.6046C75.7864 59.6588 75.6508 59.6588 75.5423 59.6046L71.6092 57.3261C71.5007 57.2718 71.4464 57.1362 71.4464 57.0277V52.4708C71.4464 52.3351 71.5007 52.2266 71.6092 52.1724L75.5423 49.8939C75.6508 49.8397 75.7864 49.8397 75.8949 49.8939L79.828 52.1724C79.9365 52.2266 79.9907 52.3623 79.9907 52.4708V57.0277V57.0277V57.0277Z" fill="#333333"/>
        <path fill-rule="evenodd" clip-rule="evenodd" d="M119.322 52.3623C119.756 52.1182 120 51.657 120 51.1688V47.941C120 47.4527 119.729 46.9916 119.322 46.7475L107.902 40.129C107.468 39.8849 106.953 39.8849 106.519 40.129L95.0181 46.7746C94.5841 47.0187 94.3128 47.4798 94.3128 47.9681V61.2321C94.3128 61.7203 94.5841 62.1815 95.0181 62.4256L106.438 68.9355C106.872 69.1797 107.387 69.1797 107.794 68.9355L114.711 65.0838C114.928 64.9753 115.063 64.7312 115.063 64.4871C115.063 64.2429 114.928 63.9988 114.711 63.8903L103.156 57.2448C102.939 57.1091 102.803 56.8921 102.803 56.648V52.4979C102.803 52.2538 102.939 52.0097 103.156 51.9012L106.763 49.8397C106.98 49.7041 107.251 49.7041 107.468 49.8397L111.076 51.9012C111.293 52.0368 111.429 52.2538 111.429 52.4979V55.7529C111.429 55.997 111.564 56.2411 111.781 56.3496C111.998 56.4853 112.269 56.4853 112.486 56.3496L119.322 52.3623V52.3623V52.3623Z" fill="#333333"/>
        <path fill-rule="evenodd" clip-rule="evenodd" d="M107.034 51.7384C107.116 51.6842 107.224 51.6842 107.306 51.7384L109.503 53.0133C109.584 53.0676 109.638 53.1489 109.638 53.2574V55.8072C109.638 55.9157 109.584 55.997 109.503 56.0513L107.306 57.3261C107.224 57.3804 107.116 57.3804 107.034 57.3261L104.837 56.0513C104.756 55.997 104.702 55.9157 104.702 55.8072V53.2574C104.702 53.1489 104.756 53.0676 104.837 53.0133L107.034 51.7384V51.7384V51.7384Z" fill="#539E43"/>
        <path fill-rule="evenodd" clip-rule="evenodd" d="M45 40.1832C44.566 39.9391 44.0506 39.9391 43.6166 40.1832L32.1971 46.7745C31.7631 47.0187 31.519 47.4798 31.519 47.968V61.1778C31.519 61.666 31.7902 62.1272 32.1971 62.3713L43.6166 68.9626C44.0506 69.2067 44.566 69.2067 45 68.9626L56.4195 62.3713C56.8535 62.1272 57.0976 61.666 57.0976 61.1778V47.968C57.0976 47.4798 56.8264 47.0187 56.4195 46.7745L45 40.1832V40.1832V40.1832Z" fill="white"/>
        <path fill-rule="evenodd" clip-rule="evenodd" d="M45 40.1832C44.566 39.9391 44.0506 39.9391 43.6166 40.1832L32.1971 46.7745C31.7631 47.0187 31.519 47.4798 31.519 47.968V61.1778C31.519 61.666 31.7902 62.1272 32.1971 62.3713L43.6166 68.9626C44.0506 69.2067 44.566 69.2067 45 68.9626L56.4195 62.3713C56.8535 62.1272 57.0976 61.666 57.0976 61.1778V47.968C57.0976 47.4798 56.8264 47.0187 56.4195 46.7745L45 40.1832V40.1832V40.1832Z" fill="url(#paint0_linear_31_170)"/>
        <mask id="mask0_31_170" style="mask-type:luminance" maskUnits="userSpaceOnUse" x="31" y="40" width="27" height="30">
            <path fill-rule="evenodd" clip-rule="evenodd" d="M45 40.1832C44.566 39.9391 44.0506 39.9391 43.6166 40.1832L32.1971 46.7745C31.7631 47.0187 31.519 47.4798 31.519 47.968V61.1778C31.519 61.666 31.7902 62.1272 32.1971 62.3713L43.6166 68.9626C44.0506 69.2067 44.566 69.2067 45 68.9626L56.4195 62.3713C56.8535 62.1272 57.0976 61.666 57.0976 61.1778V47.968C57.0976 47.4798 56.8264 47.0187 56.4195 46.7745L45 40.1832V40.1832V40.1832Z" fill="white"/>
        </mask>
        <g mask="url(#mask0_31_170)">
            <path fill-rule="evenodd" clip-rule="evenodd" d="M56.4468 46.7746L44.973 40.1832C44.8645 40.129 44.7289 40.0747 44.6204 40.0476L31.7633 62.0729C31.8718 62.2086 32.0074 62.3171 32.143 62.3984L43.6168 68.9897C43.9423 69.1796 44.322 69.2339 44.6747 69.1254L56.7452 47.0458C56.6638 46.9373 56.5553 46.8559 56.4468 46.7746V46.7746V46.7746Z" fill="url(#paint1_linear_31_170)"/>
        </g>
        <mask id="mask1_31_170" style="mask-type:luminance" maskUnits="userSpaceOnUse" x="31" y="40" width="27" height="30">
            <path fill-rule="evenodd" clip-rule="evenodd" d="M45 40.1832C44.566 39.9391 44.0506 39.9391 43.6166 40.1832L32.1971 46.7745C31.7631 47.0187 31.519 47.4798 31.519 47.968V61.1778C31.519 61.666 31.7902 62.1272 32.1971 62.3713L43.6166 68.9626C44.0506 69.2067 44.566 69.2067 45 68.9626L56.4195 62.3713C56.8535 62.1272 57.0976 61.666 57.0976 61.1778V47.968C57.0976 47.4798 56.8264 47.0187 56.4195 46.7745L45 40.1832V40.1832V40.1832Z" fill="white"/>
        </mask>
        <g mask="url(#mask1_31_170)">
            <path fill-rule="evenodd" clip-rule="evenodd" d="M56.4738 62.3713C56.7993 62.1814 57.0434 61.8559 57.1519 61.5033L44.566 40.0205C44.2405 39.9662 43.8879 39.9933 43.5895 40.1832L32.1971 46.7474L44.4847 69.1525C44.6474 69.1254 44.8373 69.0711 45 68.9897L56.4738 62.3713V62.3713V62.3713Z" fill="url(#paint2_linear_31_170)"/>
            <path fill-rule="evenodd" clip-rule="evenodd" d="M56.4738 62.3713L45.0271 68.9626C44.8644 69.044 44.7016 69.0983 44.5118 69.1254L44.7288 69.5323L57.4232 62.1814V62.0187L57.0977 61.4762C57.0434 61.8559 56.7993 62.1814 56.4738 62.3713V62.3713V62.3713Z" fill="url(#paint3_linear_31_170)"/>
            <path fill-rule="evenodd" clip-rule="evenodd" d="M56.4738 62.3713L45.0271 68.9626C44.8644 69.044 44.7016 69.0983 44.5118 69.1254L44.7288 69.5323L57.4232 62.1814V62.0187L57.0977 61.4762C57.0434 61.8559 56.7993 62.1814 56.4738 62.3713V62.3713V62.3713Z" fill="url(#paint4_linear_31_170)"/>
        </g>
    </g>
    <defs>
        <linearGradient id="paint0_linear_31_170" x1="41.8419" y1="41.3918" x2="29.6863" y2="56.1023" gradientUnits="userSpaceOnUse">
            <stop stop-color="#41873F"/>
            <stop offset="0.3288" stop-color="#418B3D"/>
            <stop offset="0.6352" stop-color="#419637"/>
            <stop offset="0.9319" stop-color="#3FA92D"/>
            <stop offset="1" stop-color="#3FAE2A"/>
        </linearGradient>
        <linearGradient id="paint1_linear_31_170" x1="49.3232" y1="72.614" x2="79.7297" y2="60.4666" gradientUnits="userSpaceOnUse">
            <stop offset="0.1376" stop-color="#41873F"/>
            <stop offset="0.4032" stop-color="#54A044"/>
            <stop offset="0.7136" stop-color="#66B848"/>
            <stop offset="0.9081" stop-color="#6CC04A"/>
        </linearGradient>
        <linearGradient id="paint2_linear_31_170" x1="31.1019" y1="70.01" x2="57.5261" y2="70.01" gradientUnits="userSpaceOnUse">
            <stop offset="0.0919165" stop-color="#6CC04A"/>
            <stop offset="0.2864" stop-color="#66B848"/>
            <stop offset="0.5968" stop-color="#54A044"/>
            <stop offset="0.8624" stop-color="#41873F"/>
        </linearGradient>
        <linearGradient id="paint3_linear_31_170" x1="31.1019" y1="73.7701" x2="57.526" y2="73.7701" gradientUnits="userSpaceOnUse">
            <stop offset="0.0919165" stop-color="#6CC04A"/>
            <stop offset="0.2864" stop-color="#66B848"/>
            <stop offset="0.5968" stop-color="#54A044"/>
            <stop offset="0.8624" stop-color="#41873F"/>
        </linearGradient>
        <linearGradient id="paint4_linear_31_170" x1="28.3785" y1="42.493" x2="25.8872" y2="76.0246" gradientUnits="userSpaceOnUse">
            <stop stop-color="#41873F"/>
            <stop offset="0.3288" stop-color="#418B3D"/>
            <stop offset="0.6352" stop-color="#419637"/>
            <stop offset="0.9319" stop-color="#3FA92D"/>
            <stop offset="1" stop-color="#3FAE2A"/>
        </linearGradient>
        <clipPath id="clip0_31_170">
            <rect width="120" height="120" fill="white"/>
        </clipPath>
    </defs>
</svg>
