<svg width="37" height="56" viewBox="0 0 37 56" fill="none" xmlns="http://www.w3.org/2000/svg">
    <path fill-rule="evenodd" clip-rule="evenodd" d="M16.8885 26.8679C20.6318 23.3015 19.4895 18.8906 16.0994 13.5457C12.7092 8.20072 5.88487 6.29916 4.61174 7.51215C3.33861 8.72514 3.05642 17.3976 6.44656 22.7425C9.83671 28.0875 13.1453 30.4343 16.8885 26.8679Z" fill="url(#paint0_linear_31_240)"/>
    <path fill-rule="evenodd" clip-rule="evenodd" d="M20.1251 27.3615C22.8944 31.7276 26.5966 30.1312 31.1791 25.7651C35.7616 21.3991 37.6617 13.0357 36.7198 11.5507C35.778 10.0658 28.6204 10.1402 24.0379 14.5062C19.4554 18.8723 17.3559 22.9955 20.1251 27.3615Z" fill="url(#paint1_linear_31_240)"/>
    <path fill-rule="evenodd" clip-rule="evenodd" d="M18.611 24.9597C23.2093 25.5242 25.0176 21.2762 25.8607 14.4095C26.7038 7.54281 23.2282 0.285154 21.6643 0.0931271C20.1003 -0.0988999 14.8462 6.08687 14.003 12.9536C13.1599 19.8203 14.0128 24.3951 18.611 24.9597Z" fill="url(#paint2_linear_31_240)"/>
    <path fill-rule="evenodd" clip-rule="evenodd" d="M17.4531 55.3259C27.0938 55.3259 34.9123 52.5254 34.9123 39.8248C34.9123 27.1242 27.0938 16.7021 17.4531 16.7021C7.8123 16.7021 0 27.1242 0 39.8248C0 52.5254 7.8123 55.3259 17.4531 55.3259Z" fill="url(#paint3_linear_31_240)"/>
    <path d="M26.2712 37.2319C27.6484 37.2319 28.7649 36.7126 28.7649 36.072C28.7649 35.4314 27.6484 34.9121 26.2712 34.9121C24.8939 34.9121 23.7774 35.4314 23.7774 36.072C23.7774 36.7126 24.8939 37.2319 26.2712 37.2319Z" fill="#EAADCC"/>
    <path d="M7.80377 36.5273C9.17075 36.6951 10.3422 36.3158 10.4203 35.6799C10.4983 35.0441 9.45346 34.3927 8.08647 34.2248C6.71949 34.057 5.54804 34.4363 5.46998 35.0721C5.39191 35.7079 6.43678 36.3594 7.80377 36.5273Z" fill="#EAADCC"/>
    <path d="M19.0507 35.6614C18.3001 36.2713 17.4332 36.5201 16.45 36.4078C15.4668 36.2954 14.738 35.8873 14.2636 35.1835" stroke="black" stroke-width="2" stroke-linecap="round" stroke-linejoin="round"/>
    <path fill-rule="evenodd" clip-rule="evenodd" d="M9.39294 29.6251C10.0812 29.6011 10.714 29.8583 11.1808 30.2935C11.6476 30.7287 11.9483 31.342 11.9723 32.0302C11.9963 32.7185 11.7392 33.3513 11.3039 33.8181C10.8686 34.2848 10.2553 34.5855 9.567 34.6095C8.87879 34.6336 8.24602 34.3764 7.7793 33.9411C7.3126 33.5059 7.01192 32.8926 6.98788 32.2043C6.96385 31.5161 7.22102 30.8833 7.65624 30.4166C8.09146 29.9498 8.70474 29.6492 9.39294 29.6251Z" fill="black"/>
    <path fill-rule="evenodd" clip-rule="evenodd" d="M9.52391 31.7096C9.50826 31.2615 9.13213 30.9109 8.68422 30.9265C8.23604 30.9422 7.88543 31.3182 7.90107 31.7663C7.91672 32.2144 8.29271 32.565 8.74089 32.5494C9.1888 32.5336 9.53956 32.1577 9.52391 31.7096Z" fill="white"/>
    <path fill-rule="evenodd" clip-rule="evenodd" d="M24.5028 30.2582C25.191 30.2341 25.8238 30.4913 26.2905 30.9265C26.7573 31.3618 27.058 31.9751 27.082 32.6633C27.106 33.3516 26.8489 33.9844 26.4136 34.4511C25.9784 34.9179 25.3651 35.2186 24.6768 35.2426C23.9886 35.2666 23.3558 35.0094 22.889 34.5742C22.4223 34.1389 22.1216 33.5256 22.0976 32.8373C22.0735 32.1491 22.3307 31.5164 22.766 31.0496C23.2012 30.5829 23.8145 30.2822 24.5028 30.2582Z" fill="black"/>
    <path d="M11.6246 32.0424C11.666 33.2269 10.7393 34.2205 9.55488 34.2618C8.37055 34.3032 7.37703 33.3767 7.33567 32.1922C7.29431 31.0078 8.22078 30.0143 9.40511 29.9729C10.5896 29.9315 11.5832 30.858 11.6246 32.0424ZM12.3201 32.0181C12.2653 30.4496 10.9494 29.2226 9.38082 29.2774C7.81237 29.3322 6.58539 30.648 6.64017 32.2165C6.69494 33.785 8.01069 35.0121 9.57917 34.9573C11.1478 34.9025 12.3749 33.5867 12.3201 32.0181Z" fill="white"/>
    <path d="M26.7342 32.6755C26.7756 33.86 25.8491 34.8535 24.6647 34.8949C23.4803 34.9362 22.4867 34.0097 22.4453 32.8252C22.404 31.6409 23.3306 30.6473 24.5149 30.606C25.6994 30.5646 26.6929 31.4911 26.7342 32.6755ZM27.4297 32.6512C27.375 31.0827 26.0592 29.8557 24.4906 29.9105C22.9221 29.9652 21.695 31.2811 21.7498 32.8495C21.8046 34.4181 23.1205 35.6451 24.689 35.5904C26.2575 35.5356 27.4845 34.2198 27.4297 32.6512Z" fill="white"/>
    <path fill-rule="evenodd" clip-rule="evenodd" d="M24.6336 32.3427C24.6179 31.8946 24.2806 31.5426 23.8802 31.5566C23.4798 31.5706 23.1678 31.9452 23.1835 32.3933C23.1991 32.8414 23.5365 33.1934 23.9368 33.1794C24.3372 33.1654 24.6492 32.7907 24.6336 32.3427Z" fill="white"/>
    <path d="M4.23352 41.0015L12.8166 49.9325" stroke="#ECB732" stroke-width="3" stroke-linecap="round"/>
    <path d="M11.6567 42.0454L6.20532 47.8448" stroke="#ECB732" stroke-width="3" stroke-linecap="round"/>
    <path d="M30.5627 41.0015L21.9796 49.9325" stroke="#ECB732" stroke-width="3" stroke-linecap="round"/>
    <path d="M23.1395 42.0454L28.5909 47.8448" stroke="#ECB732" stroke-width="3" stroke-linecap="round"/>
    <path d="M20.9357 21.2837L15.2523 26.9671" stroke="#FFC73B" stroke-width="3" stroke-linecap="round"/>
    <path d="M19.7758 26.967L14.0925 21.2837" stroke="#FFC73B" stroke-width="3" stroke-linecap="round"/>
    <defs>
        <linearGradient id="paint0_linear_31_240" x1="1873.77" y1="-1452.84" x2="3423.92" y2="2884.3" gradientUnits="userSpaceOnUse">
            <stop stop-color="#52CE63"/>
            <stop offset="1" stop-color="#51A256"/>
        </linearGradient>
        <linearGradient id="paint1_linear_31_240" x1="1499.7" y1="1884.08" x2="-2837.83" y2="3433.48" gradientUnits="userSpaceOnUse">
            <stop stop-color="#52CE63"/>
            <stop offset="1" stop-color="#51A256"/>
        </linearGradient>
        <linearGradient id="paint2_linear_31_240" x1="1906.97" y1="231.579" x2="1050.45" y2="7207.38" gradientUnits="userSpaceOnUse">
            <stop stop-color="#8AE99C"/>
            <stop offset="1" stop-color="#52CE63"/>
        </linearGradient>
        <linearGradient id="paint3_linear_31_240" x1="5721.93" y1="3235.77" x2="4796.63" y2="18430" gradientUnits="userSpaceOnUse">
            <stop stop-color="#FFE56C"/>
            <stop offset="1" stop-color="#FFC63A"/>
        </linearGradient>
    </defs>
</svg>
