<svg width="120" height="120" viewBox="0 0 51 54" fill="none" xmlns="http://www.w3.org/2000/svg">
    <path fill-rule="evenodd" clip-rule="evenodd" d="M0 8.78906L24.668 0L50 8.63281L45.8984 41.2695L24.668 53.0274L3.76953 41.4258L0 8.78906Z" fill="#402744"/>
    <path fill-rule="evenodd" clip-rule="evenodd" d="M51 8.62836L25 0V53L46.7903 41.2678L51 8.62836Z" fill="#4B314F"/>
    <path d="M12.7287 27.7594C12.1136 25.843 11.9362 23.8202 12.291 21.7382C12.4448 20.8746 12.6814 20.0465 12.9416 19.2066C12.9416 19.2066 14.574 13.8479 20.0982 11.3991C20.0982 11.3991 22.0027 10.3936 24.8653 10.3226C24.8653 10.3226 24.4749 9.9441 24.2265 9.77849C22.878 8.87944 20.8671 8.5837 19.6487 9.84946C19.282 10.228 18.9744 10.642 18.6314 11.0206C18.241 11.4465 17.7679 11.8013 17.2237 12.0024C16.7506 12.1799 16.2774 12.1444 15.7924 12.2272C15.2956 12.31 14.787 12.4875 14.3848 12.8069C13.9471 13.1617 13.7697 13.6349 13.7223 14.1791C13.675 14.6049 13.6869 15.0426 13.6632 15.4685C13.604 16.7224 13.2019 17.0773 12.3029 17.7753C11.9243 18.0592 11.6049 18.4377 11.3684 18.8399C10.6586 20.0939 11.7942 21.3951 11.8534 22.6609C11.8652 22.9211 11.8415 23.1814 11.7469 23.4298C11.6523 23.7019 11.463 23.8793 11.3092 24.1041C11.0963 24.3998 10.9543 24.7547 11.0135 25.1214C11.0726 25.4881 11.2619 25.8312 11.4393 26.1506C11.7824 26.7184 12.2082 27.2271 12.6577 27.7121C12.6814 27.7003 12.705 27.7358 12.7287 27.7594Z" fill="#ED168F"/>
    <path d="M35.2991 32.2914C38.0198 31.1085 39.179 29.062 39.179 29.062C41.7223 25.5959 40.8588 21.9406 40.8588 21.9406C39.2382 25.4658 37.7595 26.4358 37.7595 26.4358C41.7459 20.3672 37.7832 16.7001 37.7832 16.7001C39.4038 20.1543 37.2509 24.3656 37.2509 24.3656C35.4411 28.1748 32.8742 29.5352 32.8742 29.5352C35.7368 30.0675 37.8424 28.1393 37.8424 28.1393C33.7377 32.5754 29.29 32.3624 29.29 32.3624C31.159 34.4563 33.9624 34.2788 33.9624 34.2788C30.2954 35.1424 26.8532 33.9239 24.0261 31.5698C23.4937 31.1321 22.9851 30.659 22.5119 30.1503C22.5119 30.1503 22.0861 29.7008 22.0033 29.5825L21.9915 29.5706C21.9323 31.7591 24.2153 33.7938 24.2153 33.7938C21.3527 32.6108 20.0397 30.0438 20.0397 30.0438C20.0397 30.0438 18.1115 26.7552 19.5074 23.0052C20.9032 19.2553 25.1262 18.4509 25.1262 18.4509C28.6157 20.1425 31.573 20.6748 31.573 20.6748C37.8069 21.7158 37.452 18.6638 37.452 18.6638C37.5111 16.0376 33.5484 13.2458 33.5484 13.2458C26.4865 8.01717 20.0988 11.4123 20.0988 11.4123C14.5747 13.861 12.9423 19.2198 12.9423 19.2198C12.682 20.0597 12.4454 20.8877 12.2917 21.7513C11.6884 25.2647 12.5992 28.5888 14.5747 31.5462C17.6502 36.1361 22.6421 37.7212 22.6421 37.7212C30.0352 40.2291 35.0862 36.5383 35.0862 36.5383C39.735 33.3443 40.6695 29.6535 40.6695 29.6535C36.9197 32.5754 35.2991 32.2914 35.2991 32.2914ZM29.5265 15.0321C29.8814 15.0321 30.1653 15.316 30.1653 15.6709C30.1653 16.0258 29.8814 16.3097 29.5265 16.3097C29.1717 16.3097 28.8878 16.0258 28.8878 15.6709C28.8878 15.316 29.1717 15.0321 29.5265 15.0321Z" fill="url(#paint0_linear_31_303)"/>
    <path d="M37.4402 18.6501C37.4993 16.0239 33.5366 13.2322 33.5366 13.2322C26.4747 8.0035 20.087 11.3986 20.087 11.3986C14.5629 13.8473 12.9305 19.2061 12.9305 19.2061C12.6111 20.117 12.3272 21.5129 12.3272 21.5129C11.9841 23.2636 12.1379 24.8843 12.1379 24.8843C12.2799 26.434 12.6229 27.475 12.6229 27.475C12.9778 28.5869 13.1434 28.93 13.1434 28.93C13.1315 28.8945 13.0724 28.6343 13.0724 28.6343C13.0724 28.6343 12.5756 26.2447 13.0369 23.9497C13.0369 23.9497 13.4391 21.5602 15.0715 19.7148C15.0715 19.7148 17.7212 15.9411 22.6539 17.4198C22.6539 17.4198 23.7185 17.7984 24.0852 17.9877C24.4519 18.1769 25.0907 18.4372 25.0907 18.4372C28.5803 20.1288 31.5375 20.6611 31.5375 20.6611C37.7951 21.7021 37.4402 18.6501 37.4402 18.6501ZM29.5266 16.3197C29.1717 16.3197 28.8878 16.0358 28.8878 15.6809C28.8878 15.326 29.1717 15.0421 29.5266 15.0421C29.8814 15.0421 30.1653 15.326 30.1653 15.6809C30.1653 16.0358 29.8814 16.3197 29.5266 16.3197Z" fill="url(#paint1_radial_31_303)"/>
    <defs>
        <linearGradient id="paint0_linear_31_303" x1="15.5595" y1="35.8101" x2="29.9438" y2="20.5069" gradientUnits="userSpaceOnUse">
            <stop stop-color="#EC0B8E"/>
            <stop offset="0.4006" stop-color="#EB0B8E"/>
            <stop offset="0.7036" stop-color="#A11D8B"/>
            <stop offset="1" stop-color="#5C2E88"/>
        </linearGradient>
        <radialGradient id="paint1_radial_31_303" cx="0" cy="0" r="1" gradientUnits="userSpaceOnUse" gradientTransform="translate(26.2621 16.5529) rotate(0.186258) scale(14.382 14.3819)">
            <stop stop-color="#EC0B8E"/>
            <stop offset="0.1599" stop-color="#E80C8E"/>
            <stop offset="0.3277" stop-color="#DB0F8D"/>
            <stop offset="0.499" stop-color="#C6148C"/>
            <stop offset="0.6729" stop-color="#A91B8B"/>
            <stop offset="0.8469" stop-color="#83248A"/>
            <stop offset="1" stop-color="#5C2E88"/>
        </radialGradient>
    </defs>
</svg>
