<svg width="120" height="120" viewBox="0 0 120 120" fill="none" xmlns="http://www.w3.org/2000/svg">
    <path d="M60 23.9062C44 23.9062 34 31.9063 30 47.9063C36 39.9063 43 36.9063 51 38.9063C55.5644 40.0474 58.8269 43.3587 62.438 47.0243C68.3207 52.9954 75.1291 59.9063 90 59.9063C106 59.9063 116 51.9063 120 35.9063C114 43.9063 107 46.9063 99 44.9063C94.4356 43.7651 91.1731 40.4538 87.562 36.7883C81.6793 30.8171 74.8709 23.9062 60 23.9062ZM30 59.9063C14 59.9063 4 67.9063 0 83.9063C6 75.9063 13 72.9063 21 74.9063C25.5644 76.0474 28.8269 79.3587 32.438 83.0243C38.3207 88.9954 45.1291 95.9063 60 95.9063C76 95.9063 86 87.9063 90 71.9063C84 79.9063 77 82.9063 69 80.9063C64.4356 79.7651 61.1731 76.4538 57.562 72.7883C51.6793 66.8171 44.8709 59.9063 30 59.9063Z" fill="url(#paint0_linear_21_83)"/>
    <path d="M60 23.9062C44 23.9062 34 31.9063 30 47.9063C36 39.9063 43 36.9063 51 38.9063C55.5644 40.0474 58.8269 43.3587 62.438 47.0243C68.3207 52.9954 75.1291 59.9063 90 59.9063C106 59.9063 116 51.9063 120 35.9063C114 43.9063 107 46.9063 99 44.9063C94.4356 43.7651 91.1731 40.4538 87.562 36.7883C81.6793 30.8171 74.8709 23.9062 60 23.9062ZM30 59.9063C14 59.9063 4 67.9063 0 83.9063C6 75.9063 13 72.9063 21 74.9063C25.5644 76.0474 28.8269 79.3587 32.438 83.0243C38.3207 88.9954 45.1291 95.9063 60 95.9063C76 95.9063 86 87.9063 90 71.9063C84 79.9063 77 82.9063 69 80.9063C64.4356 79.7651 61.1731 76.4538 57.562 72.7883C51.6793 66.8171 44.8709 59.9063 30 59.9063Z" fill="url(#paint1_linear_21_83)"/>
    <defs>
        <linearGradient id="paint0_linear_21_83" x1="-3.33333" y1="46.9463" x2="100.306" y2="106.702" gradientUnits="userSpaceOnUse">
            <stop stop-color="#2298BD"/>
            <stop offset="1" stop-color="#0ED7B5"/>
        </linearGradient>
        <linearGradient id="paint1_linear_21_83" x1="-3.33333" y1="46.9463" x2="100.306" y2="106.702" gradientUnits="userSpaceOnUse">
            <stop stop-color="#2298BD"/>
            <stop offset="1" stop-color="#0ED7B5"/>
        </linearGradient>
    </defs>
</svg>
