<svg width="120" height="120" viewBox="0 0 120 120" fill="none" xmlns="http://www.w3.org/2000/svg">
    <path d="M92.6471 0V64.3728C92.6471 82.3641 78.0634 96.9479 60.072 96.9479C42.0807 96.9479 27.4969 82.3641 27.4969 64.3728V0H50.5422V64.3728C50.5422 67.7775 52.3585 70.9235 55.3071 72.6259C58.2556 74.3282 61.8884 74.3282 64.837 72.6259C67.7855 70.9235 69.6019 67.7775 69.6019 64.3728V0H92.6471Z" fill="#35495E"/>
    <path d="M115.691 0V64.3728C115.691 95.0909 90.7902 120 60.072 120C29.3539 120 4.45312 95.0909 4.45312 64.3728V0H27.4969V64.3728C27.4969 82.3641 42.0821 96.9479 60.072 96.9479C78.062 96.9479 92.6471 82.3641 92.6471 64.3728V0H115.691Z" fill="#41B883"/>
</svg>
